<svg xmlns="http://www.w3.org/2000/svg" xmlns:xlink="http://www.w3.org/1999/xlink" width="500" zoomAndPan="magnify" viewBox="0 0 375 374.999991" height="500" preserveAspectRatio="xMidYMid meet" version="1.0"><defs><g/></defs><rect x="-37.5" width="450" fill="#ffffff" y="-37.499999" height="449.999989" fill-opacity="1"/><rect x="-37.5" width="450" fill="#404040" y="-37.499999" height="449.999989" fill-opacity="1"/><g fill="#ffffff" fill-opacity="1"><g transform="translate(69.760562, 258.681048)"><g><path d="M 124.648438 -97.949219 L 109.351562 -56.699219 L 85.648438 -119.101562 C 85.351562 -119.699219 84.75 -120 84.148438 -120 L 63.75 -120 C 63.148438 -120 62.550781 -119.699219 62.398438 -119.101562 L 38.550781 -56.699219 L 23.398438 -97.949219 L 0 -97.949219 L 37.199219 -0.898438 C 37.648438 0.300781 39.601562 0.300781 40.050781 -0.898438 L 73.949219 -89.851562 L 107.851562 -0.898438 C 108.300781 0.300781 110.25 0.300781 110.699219 -0.898438 L 148.050781 -97.949219 Z M 124.648438 -97.949219 "/></g></g></g><g fill="#ffffff" fill-opacity="1"><g transform="translate(241.660581, 258.681048)"><g><path d="M 10.050781 -99.449219 L 52.351562 -99.449219 L 52.351562 -118.648438 C 52.351562 -119.25 51.898438 -120 50.851562 -120 L 10.050781 -120 C 9 -120 8.398438 -119.25 8.398438 -118.648438 L 8.398438 -100.800781 C 8.398438 -100.199219 9 -99.449219 10.050781 -99.449219 Z M 29.550781 -78.898438 L 29.550781 -35.398438 C 29.550781 -35.398438 29.550781 -22.199219 16.5 -22.199219 L 1.648438 -22.199219 C 0.75 -22.199219 0 -21.601562 0 -20.851562 L 0 -1.351562 C 0 -0.75 0.75 0 1.648438 0 L 16.5 0 C 16.5 0 52.351562 0 52.351562 -35.398438 L 52.351562 -78.898438 Z M 29.550781 -78.898438 "/></g></g></g><path stroke-linecap="butt" transform="matrix(1.220224, 0, 0, 1.226352, 21.974346, 325.236483)" fill="none" stroke-linejoin="miter" d="M -0.00138454 4.999138 L 84.43176 4.999138 " stroke="#ffffff" stroke-width="10" stroke-opacity="1" stroke-miterlimit="4"/><path stroke-linecap="butt" transform="matrix(0, 1.219613, -1.226352, 0, 34.231581, 232.698033)" fill="none" stroke-linejoin="miter" d="M 0.000972465 4.998578 L 82.461818 4.998578 " stroke="#ffffff" stroke-width="10" stroke-opacity="1" stroke-miterlimit="4"/><path stroke-linecap="butt" transform="matrix(-1.220224, 0, 0, -1.226352, 360.988339, 42.118152)" fill="none" stroke-linejoin="miter" d="M 0.0000474873 4.998458 L 84.433192 4.998458 " stroke="#ffffff" stroke-width="10" stroke-opacity="1" stroke-miterlimit="4"/><path stroke-linecap="butt" transform="matrix(0, -1.219613, 1.226352, 0, 348.731084, 134.656573)" fill="none" stroke-linejoin="miter" d="M 0.000264639 5.000355 L 82.464313 5.000355 " stroke="#ffffff" stroke-width="10" stroke-opacity="1" stroke-miterlimit="4"/></svg>